<?xml version="1.0" standalone="no"?>
<!DOCTYPE svg PUBLIC "-//W3C//DTD SVG 20010904//EN"
 "http://www.w3.org/TR/2001/REC-SVG-20010904/DTD/svg10.dtd">
<svg version="1.0" xmlns="http://www.w3.org/2000/svg"
 width="300.000000pt" height="156.000000pt" viewBox="0 0 300.000000 156.000000"
 preserveAspectRatio="xMidYMid meet">
<metadata>
Created by potrace 1.10, written by Peter Selinger 2001-2011
</metadata>
<g transform="translate(0.000000,156.000000) scale(0.100000,-0.100000)"
fill="#CA01FD" stroke="none">
<path d="M680 1528 c-76 -39 -98 -98 -144 -383 -28 -171 -79 -243 -176 -253
-102 -10 -221 64 -278 172 -68 130 -4 358 119 422 95 49 215 -32 244 -164 10
-50 -13 -162 -48 -232 -38 -74 -81 -104 -137 -96 -27 4 -31 3 -17 -5 25 -14
90 -2 129 25 105 70 128 281 44 403 -61 89 -154 115 -252 69 -66 -31 -108 -83
-130 -162 -22 -82 -14 -156 25 -239 55 -119 154 -194 268 -203 154 -12 238 81
264 292 33 266 47 313 102 346 54 33 140 19 194 -32 13 -12 25 -19 28 -16 10
10 -55 57 -93 68 -57 15 -93 12 -142 -12z"/>
<path d="M1367 1456 c-64 -23 -102 -62 -145 -151 -30 -61 -54 -138 -67 -208
-9 -55 -49 -121 -74 -125 -14 -2 -21 2 -22 15 -4 47 5 113 22 168 10 32 17 61
15 62 -2 2 -10 1 -18 -2 -18 -7 -40 -56 -63 -137 -29 -106 -95 -147 -95 -59 0
34 22 118 45 174 5 12 3 17 -8 17 -24 0 -57 -54 -69 -114 -10 -47 -10 -61 4
-90 22 -45 52 -55 84 -25 13 12 26 31 30 41 5 17 8 15 22 -13 33 -63 68 -64
104 -2 l22 37 8 -31 c18 -71 78 -72 121 -1 16 26 27 53 24 60 -3 8 -9 1 -16
-16 -32 -81 -84 -112 -97 -59 -14 55 49 291 102 380 46 78 134 99 228 53 22
-11 41 -18 43 -16 7 7 -44 34 -83 45 -50 14 -70 13 -117 -3z"/>
<path d="M709 1203 c-34 -29 -59 -78 -59 -115 0 -35 38 -103 65 -118 21 -11
29 -11 49 0 54 28 87 187 50 235 -16 19 -16 19 -9 -5 13 -41 6 -98 -17 -157
-28 -68 -52 -87 -74 -58 -31 39 0 180 48 225 l22 20 -21 0 c-12 0 -36 -12 -54
-27z"/>
<path d="M560 904 c-114 -38 -143 -85 -101 -167 15 -30 16 -38 5 -48 -28 -23
-64 -113 -64 -161 0 -100 71 -219 163 -272 126 -72 305 -51 393 46 52 58 81
129 110 269 28 134 51 190 89 215 31 20 26 30 -7 14 -52 -27 -85 -88 -128
-235 -50 -173 -105 -266 -188 -317 -55 -34 -156 -31 -240 7 -176 79 -215 270
-85 415 63 70 112 94 193 95 78 0 144 -28 181 -77 20 -28 24 -44 24 -103 0
-86 -27 -146 -96 -210 -75 -70 -145 -73 -206 -9 -18 20 -33 31 -33 27 0 -12
49 -57 77 -72 62 -32 180 9 228 80 29 40 55 122 55 170 0 108 -106 209 -221
209 -71 0 -144 -18 -185 -46 -39 -27 -48 -24 -60 24 -16 59 31 100 140 122 92
19 351 -5 531 -49 44 -11 81 -18 83 -16 10 9 -196 58 -343 81 -86 13 -283 18
-315 8z"/>
<path d="M2754 746 c-57 -25 -138 -149 -151 -232 -6 -35 -6 -35 -25 -14 -23
24 -39 25 -84 4 -40 -19 -70 -63 -79 -119 -10 -54 -30 -91 -60 -111 -50 -33
-91 14 -79 92 6 40 9 44 36 44 30 0 78 38 78 63 0 24 -26 50 -52 50 -37 0 -75
-30 -98 -77 -32 -68 -24 -125 26 -171 40 -37 84 -34 121 8 l29 34 22 -34 c32
-48 75 -47 105 4 20 35 22 36 27 13 8 -34 56 -67 78 -54 22 14 75 110 69 127
-2 6 -17 -15 -34 -48 -53 -107 -90 -67 -63 69 16 83 64 219 95 272 50 85 128
106 221 59 58 -30 61 -30 43 -8 -35 41 -159 57 -225 29z m-394 -259 c0 -31
-27 -67 -51 -67 -24 0 -24 2 1 50 23 44 50 53 50 17z m207 -53 c-6 -64 -37
-143 -64 -166 -12 -10 -18 -9 -29 7 -19 25 -18 52 5 125 22 69 55 112 78 103
13 -5 14 -18 10 -69z"/>
<path d="M529 657 c13 -16 81 -60 81 -52 0 2 -21 18 -47 35 -26 18 -41 25 -34
17z"/>
<path d="M1947 623 c-9 -9 23 -43 40 -43 8 0 13 5 11 12 -6 16 -43 39 -51 31z"/>
<path d="M1501 597 c-6 -8 -15 -38 -21 -67 -10 -51 -74 -184 -108 -222 -8 -10
-23 -18 -34 -18 -24 0 -24 36 2 118 11 35 20 70 20 78 0 25 -47 65 -67 57 -26
-9 -73 -54 -90 -86 -23 -45 -26 -25 -4 32 19 51 19 51 -1 51 -27 0 -56 -70
-64 -156 -5 -60 -4 -72 13 -93 l20 -24 7 58 c10 91 84 205 132 205 18 0 18 -3
-11 -85 -31 -88 -31 -106 1 -144 30 -36 52 -39 82 -11 l22 21 29 -22 c37 -27
101 -22 137 12 30 29 31 13 4 -66 -29 -84 -66 -142 -108 -170 -113 -74 -282 3
-282 130 0 22 -4 34 -10 30 -19 -12 -10 -61 19 -108 70 -109 243 -130 342 -40
51 46 80 104 113 222 44 163 119 270 141 202 7 -23 -19 -140 -41 -187 -17 -36
-49 -45 -72 -22 -7 7 -12 8 -12 2 0 -6 12 -16 26 -23 22 -10 32 -8 62 6 20 10
44 30 55 44 41 56 30 173 -18 205 -30 20 -53 6 -91 -53 -15 -24 -28 -43 -29
-43 -2 0 1 19 6 43 14 64 39 114 63 125 19 10 19 11 2 11 -38 2 -82 -63 -107
-156 -17 -64 -32 -97 -54 -122 l-31 -33 4 38 c3 28 -5 57 -27 103 -30 64 -30
64 -12 90 35 49 28 110 -8 68z m6 -202 c7 -65 -13 -105 -52 -105 -44 0 -45 26
-6 111 40 86 49 85 58 -6z"/>
<path d="M1935 506 c-26 -26 -48 -92 -49 -147 -2 -98 83 -134 133 -56 18 28
21 29 21 11 0 -12 8 -32 18 -45 l19 -22 6 55 c6 63 40 148 68 174 14 12 28 15
56 11 l37 -6 -21 21 c-33 32 -67 18 -103 -45 -31 -55 -41 -42 -15 20 17 39 14
49 -10 39 -18 -6 -45 -65 -45 -96 0 -26 -35 -97 -63 -127 -69 -76 -75 53 -10
223 8 22 -16 16 -42 -10z"/>
</g>
</svg>
